# xmcd
#
# Track frame offsets:
#	150
#	10912
#	20497
#	32482
#	45298
#	58439
#	68657
#	79890
#	93035
#	105868
#	116866
#	127201
#	142466
#	153252
#	165999
#	178815
#	191868
#	203935
#	215285
#	226330
#	239753
#	252314
#	263866
#	273004
#	285355
#	297485
#	309213
#	323482
#	333328
#	342923
#
# Disc length: 4727 seconds
#
# Revision: 0
# Processed by: cddbd v1.5.2PL0 Copyright (c) Steve Scherf et al.
# Submitted via: EasyCDDAExtractor 16.0.6.1
#
DISCID=b312751e
DTITLE=Jim Reeves - The Instant and Minit Story [CD2]
DYEAR=2005
DGENRE=R&B
TTITLE0=He'll have to go
TTITLE1=Billy Bayou
TTITLE2=May the good lord bless and keep you
TTITLE3=Roses are red
TTITLE4=Have I told you that I love you
TTITLE5=Makin believe
TTITLE6=Someday
TTITLE7=Distant drums
TTITLE8=Bimbo
TTITLE9=Welome to my world
TTITLE10=Is it really over
TTITLE11=Blue side of lonesome
TTITLE12=Am I that easy to forget
TTITLE13=I can't stop lovin you
TTITLE14=Goodnight Irene
TTITLE15=Four walls
TTITLE16=Mexicaan Joe
TTITLE17=My happiness
TTITLE18=I guess I'm crazy
TTITLE19=Danny boy
TTITLE20=I love you because
TTITLE21=Adios Amigo
TTITLE22=Home
TTITLE23=Maria Elena
TTITLE24=Am I losing you
TTITLE25=I missed me
TTITLE26=This is it
TTITLE27=I won't come in
TTITLE28=Hawaiian Wedding song
TTITLE29=Tight Like That
EXTD=
EXTT0=
EXTT1=
EXTT2=
EXTT3=
EXTT4=
EXTT5=
EXTT6=
EXTT7=
EXTT8=
EXTT9=
EXTT10=
EXTT11=
EXTT12=
EXTT13=
EXTT14=
EXTT15=
EXTT16=
EXTT17=
EXTT18=
EXTT19=
EXTT20=
EXTT21=
EXTT22=
EXTT23=
EXTT24=
EXTT25=
EXTT26=
EXTT27=
EXTT28=
EXTT29=
PLAYORDER=
